<svg width="32" height="32" viewBox="0 0 32 32" fill="none" xmlns="http://www.w3.org/2000/svg">
<g clip-path="url(#clip0_123_2697)">
<path d="M28.0371 18.9643C26.8109 18.9689 24.4337 18.3878 23.3541 18.032C21.9487 17.5682 21.8334 17.5298 21.6445 16.2494C21.5188 15.3952 21.5184 14.7441 20.8226 14.2929C20.1269 13.8418 18.1911 13.2852 16.0124 13.2818C13.8336 13.2783 11.8217 13.831 11.1275 14.2798C10.4333 14.7287 10.4421 15.3813 10.3117 16.2332C10.1279 17.434 9.97404 17.5109 8.60484 18.0109C7.5391 18.399 5.14954 18.9401 3.92419 18.9301C2.61076 18.922 2.72614 18.8066 2.4773 18.204C2.27652 17.7115 2.12126 17.2017 2.01346 16.6809C1.80693 15.6567 1.80501 14.9756 2.07654 14.2264C2.34807 13.4772 3.43728 12.1733 6.91142 11.1661C10.3856 10.1588 12.3967 9.8784 15.9739 9.8834C19.5511 9.8884 21.8888 10.3053 25.0314 11.1895C28.917 12.2853 29.6005 13.5125 29.8739 14.2629C30.1474 15.0133 30.1501 15.6929 29.9443 16.7178C29.8376 17.2386 29.6831 17.7485 29.4828 18.2409C29.2359 18.8424 29.3513 18.9578 28.0371 18.9643Z" stroke="white" stroke-width="1.5" stroke-miterlimit="10"/>
</g>
<defs>
<clipPath id="clip0_123_2697">
<rect width="32" height="32" fill="white" transform="matrix(1 0 0 -1 0 32)"/>
</clipPath>
</defs>
</svg>
