<svg width="22" height="27" viewBox="0 0 22 27" fill="none" xmlns="http://www.w3.org/2000/svg">
<path d="M0.791504 21.2916L20.6248 1.45825" stroke="white" stroke-width="1.5" stroke-linecap="round"/>
<path d="M6.31632 19.3379C5.90154 19.7526 5.98908 20.4485 6.52401 20.6892C7.46997 21.1148 8.49247 21.4006 9.56517 21.5201C9.72871 21.5383 9.83333 21.7105 9.83333 21.8751V23.3877C9.83333 23.8259 9.5065 24.1903 9.08132 24.2966L8.16278 24.5262C7.69396 24.6434 7.40892 25.1185 7.52612 25.5873C7.64333 26.0561 8.1184 26.3412 8.58722 26.224L9.50576 25.9943C10.2953 25.7969 11.1213 25.7969 11.9109 25.9943L12.8294 26.224C13.2983 26.3412 13.7733 26.0561 13.8905 25.5873C14.0077 25.1185 13.7227 24.6434 13.2539 24.5262L12.3353 24.2966C11.9102 24.1903 11.5833 23.8259 11.5833 23.3877V21.8751C11.5833 21.7105 11.6884 21.5383 11.852 21.5201C16.9516 20.9516 20.9167 16.6264 20.9167 11.3751C20.9167 10.8918 20.5249 10.5001 20.0417 10.5001C19.5584 10.5001 19.1667 10.8918 19.1667 11.3751C19.1667 16.0465 15.3797 19.8334 10.7083 19.8334C9.52724 19.8334 8.40268 19.5913 7.38158 19.1541C7.01976 18.9991 6.59463 19.0595 6.31632 19.3379Z" fill="white"/>
<path d="M10.1736 15.4806C9.63913 16.0151 9.87431 16.9057 10.6301 16.9162C10.6561 16.9166 10.6822 16.9167 10.7083 16.9167C13.7689 16.9167 16.25 14.4357 16.25 11.3751C16.25 10.6478 15.3707 10.2835 14.8564 10.7978L14.6562 10.998C14.5562 11.098 14.5 11.2336 14.5 11.3751C14.5 13.4692 12.8024 15.1667 10.7083 15.1667C10.5715 15.1667 10.4381 15.2161 10.3414 15.3128L10.1736 15.4806Z" fill="white"/>
<path d="M7.85003 13.8665C8.20271 14.2708 8.27546 14.9038 7.89611 15.2832C7.59785 15.5815 7.11999 15.6191 6.8195 15.3231C5.79921 14.318 5.16667 12.9204 5.16667 11.3751V6.70841C5.16667 3.64784 7.64776 1.16675 10.7083 1.16675C13.7689 1.16675 16.25 3.64784 16.25 6.70841C16.25 6.84985 16.1938 6.98549 16.0938 7.08551L15.8936 7.28568C15.3793 7.79996 14.5 7.43572 14.5 6.70841C14.5 4.61434 12.8024 2.91675 10.7083 2.91675C8.61425 2.91675 6.91667 4.61433 6.91667 6.70841V11.3751C6.91667 12.3288 7.26875 13.2002 7.85003 13.8665Z" fill="white"/>
<path d="M4.60479 17.2309C4.95839 17.5993 4.98887 18.1904 4.62777 18.5515C4.30671 18.8726 3.78941 18.8947 3.46927 18.5727C1.63408 16.727 0.5 14.1835 0.5 11.3751C0.5 10.8918 0.891751 10.5001 1.375 10.5001C1.85825 10.5001 2.25 10.8918 2.25 11.3751C2.25 13.6478 3.14634 15.7111 4.60479 17.2309Z" fill="white"/>
</svg>
