<svg width="28" height="22" viewBox="0 0 28 22" fill="none" xmlns="http://www.w3.org/2000/svg">
<path d="M10.4998 7.50008H5.83317M19.5929 6.00434C19.8332 7.13018 19.8332 8.63827 19.8332 11.0001C19.8332 13.3614 19.8332 14.8694 19.5931 15.9952M19.5929 6.00434C19.5009 5.57286 19.3735 5.19753 19.1974 4.8518C18.6381 3.75419 17.7457 2.8618 16.6481 2.30254C15.4003 1.66675 13.7668 1.66675 10.4998 1.66675C7.23286 1.66675 5.59938 1.66675 4.35156 2.30254C3.25395 2.8618 2.36156 3.75419 1.8023 4.8518C1.1665 6.09962 1.1665 7.73311 1.1665 11.0001C1.1665 14.2671 1.1665 15.9005 1.8023 17.1484C2.36156 18.246 3.25395 19.1384 4.35156 19.6976C5.59938 20.3334 7.23286 20.3334 10.4998 20.3334C13.7668 20.3334 15.4003 20.3334 16.6481 19.6976C17.7457 19.1384 18.6381 18.246 19.1974 17.1484C19.3736 16.8025 19.501 16.4269 19.5931 15.9952M19.5929 6.00434L19.8332 5.89214L20.298 5.68904C23.2471 4.40038 24.7217 3.75605 25.7774 4.44686C26.8332 5.13768 26.8332 6.74688 26.8332 9.96529V12.0349C26.8332 15.2533 26.8332 16.8625 25.7774 17.5533C24.7217 18.2441 23.2471 17.5998 20.298 16.3111L19.8332 16.108L19.5931 15.9952" stroke="white" stroke-width="1.5" stroke-linecap="round"/>
</svg>
