<svg width="28" height="23" viewBox="0 0 28 23" fill="none" xmlns="http://www.w3.org/2000/svg">
<path d="M10.4607 0.791748C8.86035 0.791743 7.60567 0.791738 6.59726 0.874129C5.57043 0.958024 4.72214 1.13169 3.95432 1.52291C2.69206 2.16606 1.66582 3.19231 1.02267 4.45456C0.631446 5.22238 0.45778 6.07068 0.373885 7.09751C0.291494 8.10591 0.291499 9.36059 0.291504 10.9609V11.0392C0.291499 12.6396 0.291494 13.8942 0.373885 14.9027C0.45778 15.9295 0.631446 16.7778 1.02267 17.5456C1.0499 17.599 1.07782 17.6521 1.10641 17.7047C1.36567 18.1815 2.00467 18.2233 2.38844 17.8396L2.454 17.774C2.72168 17.5063 2.75379 17.0884 2.58193 16.7511C2.33736 16.2711 2.19313 15.6788 2.11807 14.7602C2.04218 13.8313 2.0415 12.648 2.0415 11.0001C2.0415 9.35216 2.04218 8.16884 2.11807 7.24001C2.19313 6.3214 2.33736 5.72905 2.58193 5.24905C3.0573 4.31608 3.81583 3.55755 4.7488 3.08217C5.2288 2.8376 5.82116 2.69337 6.73977 2.61832C7.66859 2.54243 8.85191 2.54175 10.4998 2.54175C12.1478 2.54175 13.3311 2.54243 14.2599 2.61832C15.1785 2.69337 15.7709 2.8376 16.2509 3.08217C16.5882 3.25404 17.0061 3.22192 17.2738 2.95424L17.3393 2.88868C17.7231 2.50492 17.6812 1.86591 17.2044 1.60666C17.1518 1.57806 17.0988 1.55014 17.0454 1.52291C16.2775 1.13169 15.4292 0.958024 14.4024 0.874129C13.394 0.791738 12.1393 0.791743 10.539 0.791748H10.4607Z" fill="white"/>
<path fill-rule="evenodd" clip-rule="evenodd" d="M19.8653 4.2446C19.6036 3.77301 18.969 3.73389 18.5876 4.11527L18.5524 4.15048C18.2651 4.43777 18.2333 4.88704 18.4177 5.24905C18.6623 5.72905 18.8065 6.3214 18.8816 7.24001C18.9575 8.16884 18.9582 9.35216 18.9582 11.0001C18.9582 12.648 18.9575 13.8313 18.8816 14.7602C18.8065 15.6788 18.6623 16.2711 18.4177 16.7511C17.9424 17.6841 17.1838 18.4426 16.2509 18.918C15.7709 19.1626 15.1785 19.3068 14.2599 19.3818C13.3311 19.4577 12.1478 19.4584 10.4998 19.4584C8.85191 19.4584 7.66859 19.4577 6.73977 19.3818C5.82116 19.3068 5.2288 19.1626 4.7488 18.918C4.3868 18.7335 3.93753 18.7654 3.65024 19.0527L3.61503 19.0879C3.23365 19.4692 3.27277 20.1038 3.74436 20.3655C3.81359 20.404 3.88358 20.4412 3.95432 20.4773C4.72214 20.8685 5.57043 21.0421 6.59726 21.126C7.60565 21.2084 8.8603 21.2084 10.4606 21.2084H10.539C12.1393 21.2084 13.394 21.2084 14.4024 21.126C15.4292 21.0421 16.2775 20.8685 17.0454 20.4773C18.3076 19.8341 19.3339 18.8079 19.977 17.5456C20.073 17.3573 20.2971 17.2657 20.4909 17.3501C21.6933 17.8738 22.6933 18.2951 23.5186 18.519C24.481 18.7801 25.4185 18.8339 26.2565 18.2855C27.0946 17.7371 27.4207 16.8565 27.5668 15.8701C27.7082 14.915 27.7082 13.6551 27.7082 12.1086V9.89154C27.7082 8.34505 27.7082 7.08517 27.5668 6.13002C27.4207 5.14363 27.0946 4.26305 26.2565 3.71468C25.4185 3.16631 24.481 3.2201 23.5186 3.48117C22.6933 3.70508 21.6933 4.12641 20.4909 4.65005C20.2971 4.73445 20.073 4.6429 19.977 4.45456C19.941 4.38383 19.9037 4.31383 19.8653 4.2446ZM20.6483 15.5093C20.6 15.4882 20.5715 15.4378 20.5777 15.3854C20.5964 15.2289 20.6123 15.0681 20.6258 14.9027C20.7082 13.8943 20.7082 12.6396 20.7082 11.0393V10.9609C20.7082 9.36061 20.7082 8.1059 20.6258 7.09751C20.6123 6.93208 20.5964 6.77129 20.5777 6.61472C20.5715 6.56238 20.6 6.51195 20.6483 6.49084C22.1494 5.83491 23.185 5.38494 23.9768 5.17013C24.753 4.95957 25.0806 5.0366 25.2983 5.17905C25.516 5.3215 25.7178 5.59092 25.8356 6.38644C25.9559 7.19806 25.9582 8.32712 25.9582 9.96529V12.0349C25.9582 13.673 25.9559 14.8021 25.8356 15.6137C25.7178 16.4092 25.516 16.6787 25.2983 16.8211C25.0806 16.9636 24.753 17.0406 23.9768 16.83C23.185 16.6152 22.1494 16.1653 20.6483 15.5093Z" fill="white"/>
<path d="M22.132 1.66675L2.33301 21.4657M10.4998 7.50008H5.83313" stroke="white" stroke-width="1.5" stroke-linecap="round"/>
</svg>
